<svg xmlns="http://www.w3.org/2000/svg" viewBox="0 0 952 952"><defs><style>.cls-1{fill:#bcbdc0;}.cls-2{fill:#818285;}.cls-3{fill:#c7c5c8;}</style></defs><g id="Layer_1" data-name="Layer 1"><circle class="cls-1" cx="476" cy="476" r="476"/></g><g id="Layer_2" data-name="Layer 2"><circle class="cls-2" cx="476" cy="476" r="439.17"/></g><g id="Layer_7" data-name="Layer 7"><rect class="cls-1" x="759.79" y="618.04" width="128.3" height="128.3" transform="translate(1234.31 1670.03) rotate(-152.18)"/><rect class="cls-1" x="411.85" y="15.89" width="128.3" height="128.3" transform="translate(556.04 -395.96) rotate(90)"/><rect class="cls-1" x="83.81" y="611.2" width="113.61" height="128.3" transform="translate(580.14 1207.03) rotate(152.18)"/></g><g id="Layer_3" data-name="Layer 3"><circle class="cls-1" cx="476" cy="473.67" r="356.45"/></g><g id="Layer_4" data-name="Layer 4"><circle class="cls-2" cx="479" cy="473.67" r="324"/></g><g id="Layer_5" data-name="Layer 5"><path class="cls-3" d="M652.73,287.53a8.27,8.27,0,0,0-8.27,8.27,8.28,8.28,0,0,1-16.55,0,8.27,8.27,0,0,0-6.38-8.05l-140.64-33.1a2.08,2.08,0,0,0-.25,0,8.28,8.28,0,0,0-1.73-.06,7.88,7.88,0,0,0-1.54.06,2.26,2.26,0,0,0-.26,0l-140.64,33.1a8.27,8.27,0,0,0-6.38,8.05,8.28,8.28,0,0,1-16.55,0,8.28,8.28,0,0,0-16.55,0,24.82,24.82,0,0,0,48.7,6.78L479,271.21l133.31,31.37A24.82,24.82,0,0,0,661,295.8,8.26,8.26,0,0,0,652.73,287.53Z"/><path class="cls-3" d="M396.27,676.35,402,659.1a11.07,11.07,0,0,1,10.5-7.56h133A11.07,11.07,0,0,1,556,659.1l5.75,17.25Z"/><path class="cls-3" d="M470.73,692.9l-11.35-14.11a23.57,23.57,0,0,1-4.82-15.61L470.73,271h16.54l16.17,392.2a23.57,23.57,0,0,1-4.82,15.61L487.27,692.9Z"/><path class="cls-3" d="M478.7,651.54H412.52A11.07,11.07,0,0,0,402,659.1l-5.75,17.25h66.19l5.75-17.25A11,11,0,0,1,478.7,651.54Z"/><path class="cls-3" d="M561.73,692.9H396.27a8.27,8.27,0,0,1-8.27-8.27v-8.28a8.27,8.27,0,0,1,8.27-8.27H561.73a8.27,8.27,0,0,1,8.27,8.27v8.28A8.27,8.27,0,0,1,561.73,692.9Z"/><circle class="cls-3" cx="479" cy="262.71" r="8.27" transform="translate(113.27 668.53) rotate(-76.72)"/><path class="cls-3" d="M396.27,568.81a8.28,8.28,0,0,1-8-6L321.82,326.36,255.33,562.77a8.28,8.28,0,0,1-15.94-4.47l74.46-264.74a8.28,8.28,0,0,1,15.93,0L404.24,558.3a8.28,8.28,0,0,1-8,10.51Z"/><path class="cls-3" d="M396.27,568.81H247.36a8.28,8.28,0,0,1-8.27-8.28h0a8.27,8.27,0,0,1,8.27-8.27H396.27a8.28,8.28,0,0,1,8.28,8.27h0A8.29,8.29,0,0,1,396.27,568.81Z"/><path class="cls-3" d="M297,560.53a8.27,8.27,0,0,1,8.27-8.27H247.36a8.28,8.28,0,0,0,0,16.55h57.91A8.28,8.28,0,0,1,297,560.53Z"/><path class="cls-3" d="M369.5,601.9H274.13a16.54,16.54,0,0,1-14.8-9.15l-12-23.94H396.27l-12,23.94A16.54,16.54,0,0,1,369.5,601.9Z"/><path class="cls-3" d="M317.24,592.75l-12-23.94H247.36l12,23.94a16.54,16.54,0,0,0,14.8,9.15H332A16.56,16.56,0,0,1,317.24,592.75Z"/><path class="cls-3" d="M710.64,568.81a8.29,8.29,0,0,1-8-6L636.18,326.36,569.69,562.77a8.27,8.27,0,1,1-15.93-4.47l74.46-264.74a8.28,8.28,0,0,1,15.93,0L718.61,558.3a8.28,8.28,0,0,1-8,10.51Z"/><path class="cls-3" d="M710.64,568.81H561.73a8.28,8.28,0,0,1-8.28-8.28h0a8.28,8.28,0,0,1,8.28-8.27H710.64a8.27,8.27,0,0,1,8.27,8.27h0A8.28,8.28,0,0,1,710.64,568.81Z"/><path class="cls-3" d="M611.37,560.53a8.27,8.27,0,0,1,8.27-8.27H561.73a8.28,8.28,0,1,0,0,16.55h57.91A8.28,8.28,0,0,1,611.37,560.53Z"/><path class="cls-3" d="M683.87,601.9H588.5a16.54,16.54,0,0,1-14.8-9.15l-12-23.94H710.64l-12,23.94A16.55,16.55,0,0,1,683.87,601.9Z"/><path class="cls-3" d="M631.61,592.75l-12-23.94H561.73l12,23.94a16.54,16.54,0,0,0,14.8,9.15h57.91A16.54,16.54,0,0,1,631.61,592.75Z"/></g></svg>