<svg xmlns="http://www.w3.org/2000/svg" viewBox="0 0 952 952"><defs><style>.cls-1{fill:#bcbdc0;}.cls-2{fill:#818285;}.cls-3{fill:none;stroke:#58585a;stroke-miterlimit:10;stroke-width:25px;stroke-dasharray:159.32 159.32;}</style></defs><g id="Layer_1" data-name="Layer 1"><circle class="cls-1" cx="476" cy="476" r="476"/></g><g id="Layer_2" data-name="Layer 2"><circle class="cls-2" cx="476" cy="476" r="439.17"/></g><g id="Layer_7" data-name="Layer 7"><rect class="cls-1" x="759.79" y="618.04" width="128.3" height="128.3" transform="translate(1234.31 1670.03) rotate(-152.18)"/><rect class="cls-1" x="411.85" y="15.89" width="128.3" height="128.3" transform="translate(556.04 -395.96) rotate(90)"/><rect class="cls-1" x="83.81" y="611.2" width="113.61" height="128.3" transform="translate(580.14 1207.03) rotate(152.18)"/></g><g id="Layer_3" data-name="Layer 3"><circle class="cls-1" cx="476" cy="473.67" r="356.45"/></g><g id="Layer_4" data-name="Layer 4"><circle class="cls-2" cx="479" cy="473.67" r="324"/></g><g id="Layer_6" data-name="Layer 6"><path class="cls-3" d="M732.56,476C732.56,616,619,729.56,479,729.56c-336.35-13.35-336.25-493.82,0-507.12C619,222.44,732.56,336,732.56,476Z"/></g><g id="Layer_5" data-name="Layer 5"><path class="cls-1" d="M484.66,400l66.8-115.7a10,10,0,0,0-8.66-15H409.2a10,10,0,0,0-8.66,15L467.34,400A10,10,0,0,0,484.66,400Z"/><rect class="cls-1" x="456.74" width="38.51" height="295.95" rx="19.26" transform="translate(952 295.95) rotate(-180)"/><path class="cls-1" d="M414.43,521.08,280.94,516a10,10,0,0,0-9.23,14.65l62.34,118.16a10,10,0,0,0,17.31.66L422.52,536.4A10,10,0,0,0,414.43,521.08Z"/><rect class="cls-1" x="176.29" y="498.39" width="38.51" height="295.95" rx="19.26" transform="translate(675.97 171.79) rotate(62.18)"/><path class="cls-1" d="M536.25,520.34l133.5-5.09A10,10,0,0,1,679,529.91L616.63,648.06a10,10,0,0,1-17.31.66L528.17,535.66A10,10,0,0,1,536.25,520.34Z"/><rect class="cls-1" x="735.89" y="497.65" width="38.51" height="295.95" rx="19.26" transform="translate(1678.55 279.02) rotate(117.82)"/></g></svg>